<svg width="75" height="75" viewBox="0 0 75 75" fill="none" xmlns="http://www.w3.org/2000/svg">
<path d="M39.4593 40.7208V17.498C39.4593 17.4853 39.9188 9.28203 47.7309 3.42269C50.7287 1.17487 54.2413 0 57.825 0C61.9064 0 65.8764 1.60597 69.0081 4.60563C72.1593 7.62375 75 12.5197 75 20.3635C75 40.4943 57.2971 40.7266 57.4998 40.7266H39.465C39.4643 40.727 39.4635 40.7272 39.4626 40.7271C39.4618 40.727 39.461 40.7266 39.4604 40.726C39.4598 40.7254 39.4593 40.7245 39.4591 40.7236C39.4589 40.7227 39.459 40.7217 39.4593 40.7208V40.7208Z" fill="#E83E3F"/>
<path d="M38.8878 46.149V62.6025C38.8878 62.6117 39.2137 68.4234 44.7485 72.5744C46.8759 74.1625 49.3612 75.0054 51.9002 74.9999V74.9999C54.7916 74.9999 57.6052 73.8624 59.8231 71.7372C62.0557 69.599 64.0683 66.1302 64.0683 60.5727C64.0683 46.3101 51.526 46.1455 51.6697 46.1455H38.8908C38.89 46.1455 38.8893 46.1459 38.8887 46.1465C38.8881 46.1472 38.8878 46.1481 38.8878 46.149V46.149Z" fill="#E83E3F"/>
<path d="M35.5403 40.7208V17.498C35.5403 17.4853 35.0806 9.28203 27.2685 3.42269C24.2707 1.17487 20.7581 0 17.1743 0C13.0933 0 9.12293 1.60597 5.99124 4.60563C2.84007 7.62298 0 12.5209 0 20.3627C0 40.4935 17.7025 40.7258 17.4999 40.7258H35.5366C35.5372 40.7257 35.5377 40.7256 35.5382 40.7253C35.5386 40.725 35.5391 40.7246 35.5394 40.7242C35.5397 40.7237 35.54 40.7232 35.5402 40.7226C35.5403 40.722 35.5404 40.7214 35.5403 40.7208V40.7208Z" fill="#E83E3F"/>
<path d="M36.1115 46.149V62.6025C36.1115 62.6117 35.7856 68.4234 30.2508 72.5744C28.1235 74.1625 25.6383 75.0054 23.0994 74.9999V74.9999C20.2077 74.9999 17.3945 73.8624 15.1762 71.7372C12.9436 69.599 10.9311 66.1302 10.9311 60.5727C10.9311 46.3101 23.4733 46.1455 23.3297 46.1455H36.1091C36.1098 46.1457 36.1104 46.1461 36.1109 46.1468C36.1113 46.1474 36.1115 46.1482 36.1115 46.149V46.149Z" fill="#E83E3F"/>
</svg>
