<svg width="55" height="50" viewBox="0 0 55 50" fill="none" xmlns="http://www.w3.org/2000/svg">
<path d="M13.2116 26.8406V26.8406L13.2033 26.8407C5.97296 26.9613 0.232133 21.117 0.511282 13.6928L0.512008 13.6734L0.511241 13.6541C0.21331 6.15683 5.86918 0.26806 13.1953 0.50704L13.2035 0.507306H13.2116C20.2092 0.507306 25.9 6.37817 25.9 13.6667V13.6898V13.713V13.7363V13.7596V13.783V13.8065V13.83V13.8536V13.8772V13.9009V13.9247V13.9485V13.9724V13.9963V14.0203V14.0444V14.0685V14.0927V14.1169V14.1412V14.1656V14.19V14.2144V14.239V14.2635V14.2882V14.3129V14.3376V14.3624V14.3873V14.4122V14.4372V14.4622V14.4873V14.5124V14.5376V14.5628V14.5881V14.6135V14.6389V14.6643V14.6898V14.7154V14.741V14.7666V14.7923V14.8181V14.8439V14.8697V14.8956V14.9216V14.9476V14.9736V14.9997V15.0259V15.0521V15.0783V15.1046V15.1309V15.1573V15.1837V15.2102V15.2367V15.2633V15.2899V15.3165V15.3432V15.37V15.3968V15.4236V15.4505V15.4774V15.5043V15.5313V15.5584V15.5855V15.6126V15.6397V15.667V15.6942V15.7215V15.7488V15.7762V15.8036V15.831V15.8585V15.886V15.9136V15.9412V15.9688V15.9965V16.0242V16.052V16.0798V16.1076V16.1354V16.1633V16.1913V16.2192V16.2472V16.2753V16.3033V16.3314V16.3596V16.3877V16.4159V16.4442V16.4724V16.5007V16.5291V16.5574V16.5858V16.6143V16.6427V16.6712V16.6997V16.7283V16.7568V16.7854V16.8141V16.8427V16.8714V16.9002V16.9289V16.9577V16.9865V17.0153V17.0442V17.073V17.102V17.1309V17.1599V17.1888V17.2178V17.2469V17.2759V17.305V17.3341V17.3633V17.3924V17.4216V17.4508V17.48V17.5093V17.5385V17.5678V17.5971V17.6264V17.6558V17.6852V17.7146V17.744V17.7734V17.8028V17.8323V17.8618V17.8913V17.9208V17.9504V17.9799V18.0095V18.0391V18.0687V18.0983V18.1279V18.1576V18.1873V18.217V18.2467V18.2764V18.3061V18.3358V18.3656V18.3954V18.4251V18.4549V18.4848V18.5146V18.5444V18.5742V18.6041V18.634V18.6638V18.6937V18.7236V18.7535V18.7834V18.8134V18.8433V18.8733V18.9032V18.9332V18.9631V18.9931V19.0231V19.0531V19.0831V19.1131V19.1431V19.1731V19.2031V19.2331V19.2632V19.2932V19.3232V19.3533V19.3833V19.4134V19.4434V19.4735V19.5035V19.5336V19.5637V19.5937V19.6238V19.6539V19.6839V19.714V19.7441V19.7741V19.8042V19.8343V19.8643V19.8944V19.9245V19.9545V19.9846V20.0146V20.0447V20.0747V20.1048V20.1348V20.1649V20.1949V20.2249V20.255V20.285V20.315V20.345V20.375V20.405V20.435V20.465V20.495V20.525V20.5549V20.5849V20.6148V20.6448V20.6747V20.7046V20.7345V20.7644V20.7943V20.8242V20.8541V20.8839V20.9138V20.9436V20.9735V21.0033V21.0331V21.0629V21.0926V21.1224V21.1522V21.1819V21.2116V21.2413V21.271V21.3007V21.3304V21.36V21.3896V21.4193V21.4489V21.4784V21.508V21.5376V21.5671V21.5966V21.6261V21.6556V21.685V21.7145V21.7439V21.7733V21.8027V21.8321V21.8614V21.8907V21.92V21.9493V21.9786V22.0078V22.037V22.0662V22.0954V22.1245V22.1536V22.1827V22.2118V22.2409V22.2699V22.2989V22.3279V22.3568V22.3857V22.4146V22.4435V22.4724V22.5012V22.53V22.5587V22.5875V22.6162V22.6449V22.6735V22.7021V22.7307V22.7593V22.7878V22.8163V22.8448V22.8733V22.9017V22.9301V22.9584V22.9867V23.015V23.0433V23.0715V23.0997V23.1278V23.156V23.1841V23.2121V23.2401V23.2681V23.2961V23.324V23.3519V23.3797V23.4075V23.4353V23.463V23.4907V23.5184V23.546V23.5736V23.6011V23.6287V23.6561V23.6836V23.711V23.7383V23.7656V23.7929V23.8201V23.8473V23.8745V23.9016V23.9286V23.9557V23.9827V24.0096V24.0365V24.0633V24.0902V24.1169V24.1437V24.1703V24.197V24.2236V24.2501V24.2766V24.3031V24.3295V24.3558V24.3822V24.4084V24.4346V24.4608V24.4869V24.513V24.5391V24.565V24.591V24.6169V24.6427V24.6685V24.6942V24.7199V24.7455V24.7711V24.7966V24.8221V24.8476V24.8729V24.8983V24.9235V24.9487V24.9739V24.999V25.0241V25.0491V25.074V25.0989V25.1238V25.1486V25.1733V25.198V25.2226V25.2471V25.2716V25.2961V25.3205V25.3448V25.3691V25.3933V25.4174V25.4415V25.4656V25.4896V25.5135V25.5374V25.5612V25.5849V25.6086V25.6322V25.6557V25.6792V25.7027V25.726V25.7494V25.7726V25.7958V25.8189V25.842V25.8649V25.8879V25.9107V25.9335V25.9563V25.9789V26.0015V26.0241V26.0465V26.0689V26.0913V26.1135V26.1357V26.1579V26.1799V26.2019V26.2239V26.2457V26.2675V26.2892V26.3109V26.3325V26.354V26.3754V26.3968V26.4181V26.4393V26.4605V26.4815V26.5026V26.5235V26.5444V26.5651V26.5859V26.6065V26.6271V26.6476V26.668V26.6883V26.7086V26.7288V26.7489V26.769V26.7889V26.8088V26.8286V26.8344C22.7559 26.8406 16.5077 26.8406 13.2116 26.8406Z" fill="#E83E3F" stroke="#E83E3F"/>
<path d="M17.2414 31.168V31.1681L17.2329 31.1679C12.3099 31.0843 8.38326 35.1368 8.5744 40.313L8.57511 40.3319L8.57437 40.3509C8.37024 45.5811 12.2397 49.6607 17.2248 49.4951L17.2331 49.4948H17.2414C22.0031 49.4948 25.9 45.4228 25.9 40.3366V40.3202V40.3038V40.2874V40.2709V40.2543V40.2377V40.2211V40.2044V40.1877V40.171V40.1542V40.1373V40.1204V40.1035V40.0865V40.0695V40.0525V40.0354V40.0182V40.001V39.9838V39.9666V39.9493V39.9319V39.9145V39.8971V39.8797V39.8622V39.8446V39.8271V39.8094V39.7918V39.7741V39.7564V39.7386V39.7208V39.7029V39.685V39.6671V39.6492V39.6312V39.6131V39.5951V39.577V39.5588V39.5407V39.5225V39.5042V39.4859V39.4676V39.4493V39.4309V39.4125V39.394V39.3755V39.357V39.3385V39.3199V39.3012V39.2826V39.2639V39.2452V39.2264V39.2077V39.1888V39.17V39.1511V39.1322V39.1133V39.0943V39.0753V39.0563V39.0372V39.0181V38.999V38.9799V38.9607V38.9415V38.9222V38.903V38.8837V38.8643V38.845V38.8256V38.8062V38.7868V38.7673V38.7478V38.7283V38.7088V38.6892V38.6696V38.65V38.6303V38.6107V38.591V38.5712V38.5515V38.5317V38.5119V38.4921V38.4723V38.4524V38.4325V38.4126V38.3926V38.3727V38.3527V38.3327V38.3126V38.2926V38.2725V38.2524V38.2323V38.2121V38.192V38.1718V38.1516V38.1314V38.1111V38.0909V38.0706V38.0503V38.0299V38.0096V37.9892V37.9688V37.9484V37.928V37.9076V37.8871V37.8666V37.8461V37.8256V37.8051V37.7845V37.764V37.7434V37.7228V37.7022V37.6816V37.6609V37.6403V37.6196V37.5989V37.5782V37.5575V37.5367V37.516V37.4952V37.4744V37.4536V37.4328V37.412V37.3912V37.3703V37.3494V37.3286V37.3077V37.2868V37.2659V37.245V37.224V37.2031V37.1821V37.1611V37.1402V37.1192V37.0982V37.0772V37.0561V37.0351V37.0141V36.993V36.972V36.9509V36.9298V36.9087V36.8876V36.8665V36.8454V36.8243V36.8032V36.7821V36.7609V36.7398V36.7186V36.6975V36.6763V36.6551V36.6339V36.6128V36.5916V36.5704V36.5492V36.528V36.5068V36.4856V36.4643V36.4431V36.4219V36.4007V36.3794V36.3582V36.3369V36.3157V36.2945V36.2732V36.252V36.2307V36.2095V36.1882V36.1669V36.1457V36.1244V36.1032V36.0819V36.0607V36.0394V36.0181V35.9969V35.9756V35.9544V35.9331V35.9118V35.8906V35.8693V35.8481V35.8268V35.8056V35.7843V35.7631V35.7418V35.7206V35.6994V35.6781V35.6569V35.6357V35.6145V35.5933V35.572V35.5508V35.5296V35.5084V35.4872V35.4661V35.4449V35.4237V35.4025V35.3814V35.3602V35.3391V35.3179V35.2968V35.2756V35.2545V35.2334V35.2123V35.1912V35.1701V35.149V35.128V35.1069V35.0858V35.0648V35.0438V35.0227V35.0017V34.9807V34.9597V34.9387V34.9178V34.8968V34.8758V34.8549V34.834V34.813V34.7921V34.7712V34.7504V34.7295V34.7086V34.6878V34.667V34.6461V34.6253V34.6045V34.5838V34.563V34.5423V34.5215V34.5008V34.4801V34.4594V34.4388V34.4181V34.3975V34.3768V34.3562V34.3356V34.3151V34.2945V34.274V34.2534V34.2329V34.2124V34.192V34.1715V34.1511V34.1307V34.1103V34.0899V34.0695V34.0492V34.0289V34.0086V33.9883V33.968V33.9478V33.9276V33.9074V33.8872V33.8671V33.8469V33.8268V33.8067V33.7866V33.7666V33.7466V33.7266V33.7066V33.6866V33.6667V33.6468V33.6269V33.607V33.5872V33.5674V33.5476V33.5278V33.5081V33.4884V33.4687V33.449V33.4294V33.4098V33.3902V33.3706V33.3511V33.3316V33.3121V33.2927V33.2733V33.2539V33.2345V33.2151V33.1958V33.1765V33.1573V33.1381V33.1189V33.0997V33.0806V33.0615V33.0424V33.0233V33.0043V32.9853V32.9664V32.9474V32.9285V32.9097V32.8908V32.872V32.8533V32.8345V32.8158V32.7971V32.7785V32.7599V32.7413V32.7228V32.7043V32.6858V32.6674V32.649V32.6306V32.6122V32.5939V32.5757V32.5574V32.5392V32.5211V32.503V32.4849V32.4668V32.4488V32.4308V32.4129V32.395V32.3771V32.3593V32.3415V32.3237V32.306V32.2883V32.2707V32.2531V32.2355V32.218V32.2005V32.1831V32.1657V32.1483V32.131V32.1137V32.0964V32.0792V32.0621V32.0449V32.0279V32.0108V31.9938V31.9769V31.9599V31.9431V31.9263V31.9095V31.8927V31.876V31.8594V31.8428V31.8262V31.8097V31.7932V31.7767V31.7603V31.744V31.7277V31.7114V31.6952V31.6791V31.6629V31.6469V31.6308V31.6149V31.5989V31.583V31.5672V31.5514V31.5357V31.52V31.5043V31.4887V31.4732V31.4577V31.4422V31.4268V31.4114V31.3961V31.3809V31.3657V31.3505V31.3354V31.3203V31.3053V31.2904V31.2755V31.2606V31.2458V31.231V31.2163V31.2017V31.1871V31.1726V31.1721C23.6728 31.168 19.4784 31.168 17.2414 31.168Z" fill="#E83E3F" stroke="#E83E3F"/>
<path d="M41.7884 26.8406V26.8406L41.7967 26.8407C49.027 26.9613 54.7679 21.117 54.4887 13.6928L54.488 13.6734L54.4888 13.6541C54.7867 6.15683 49.1308 0.26806 41.8047 0.50704L41.7965 0.507306H41.7884C34.7908 0.507306 29.1 6.37817 29.1 13.6667V13.6898V13.713V13.7363V13.7596V13.783V13.8065V13.83V13.8536V13.8772V13.9009V13.9247V13.9485V13.9724V13.9963V14.0203V14.0444V14.0685V14.0927V14.1169V14.1412V14.1656V14.19V14.2144V14.239V14.2635V14.2882V14.3129V14.3376V14.3624V14.3873V14.4122V14.4372V14.4622V14.4873V14.5124V14.5376V14.5628V14.5881V14.6135V14.6389V14.6643V14.6898V14.7154V14.741V14.7666V14.7923V14.8181V14.8439V14.8697V14.8956V14.9216V14.9476V14.9736V14.9997V15.0259V15.0521V15.0783V15.1046V15.1309V15.1573V15.1837V15.2102V15.2367V15.2633V15.2899V15.3165V15.3432V15.37V15.3968V15.4236V15.4505V15.4774V15.5043V15.5313V15.5584V15.5855V15.6126V15.6397V15.667V15.6942V15.7215V15.7488V15.7762V15.8036V15.831V15.8585V15.886V15.9136V15.9412V15.9688V15.9965V16.0242V16.052V16.0798V16.1076V16.1354V16.1633V16.1913V16.2192V16.2472V16.2753V16.3033V16.3314V16.3596V16.3877V16.4159V16.4442V16.4724V16.5007V16.5291V16.5574V16.5858V16.6143V16.6427V16.6712V16.6997V16.7283V16.7568V16.7854V16.8141V16.8427V16.8714V16.9002V16.9289V16.9577V16.9865V17.0153V17.0442V17.073V17.102V17.1309V17.1599V17.1888V17.2178V17.2469V17.2759V17.305V17.3341V17.3633V17.3924V17.4216V17.4508V17.48V17.5093V17.5385V17.5678V17.5971V17.6264V17.6558V17.6852V17.7146V17.744V17.7734V17.8028V17.8323V17.8618V17.8913V17.9208V17.9504V17.9799V18.0095V18.0391V18.0687V18.0983V18.1279V18.1576V18.1873V18.217V18.2467V18.2764V18.3061V18.3358V18.3656V18.3954V18.4251V18.4549V18.4848V18.5146V18.5444V18.5742V18.6041V18.634V18.6638V18.6937V18.7236V18.7535V18.7834V18.8134V18.8433V18.8733V18.9032V18.9332V18.9631V18.9931V19.0231V19.0531V19.0831V19.1131V19.1431V19.1731V19.2031V19.2331V19.2632V19.2932V19.3232V19.3533V19.3833V19.4134V19.4434V19.4735V19.5035V19.5336V19.5637V19.5937V19.6238V19.6539V19.6839V19.714V19.7441V19.7741V19.8042V19.8343V19.8643V19.8944V19.9245V19.9545V19.9846V20.0146V20.0447V20.0747V20.1048V20.1348V20.1649V20.1949V20.2249V20.255V20.285V20.315V20.345V20.375V20.405V20.435V20.465V20.495V20.525V20.5549V20.5849V20.6148V20.6448V20.6747V20.7046V20.7345V20.7644V20.7943V20.8242V20.8541V20.8839V20.9138V20.9436V20.9735V21.0033V21.0331V21.0629V21.0926V21.1224V21.1522V21.1819V21.2116V21.2413V21.271V21.3007V21.3304V21.36V21.3896V21.4193V21.4489V21.4784V21.508V21.5376V21.5671V21.5966V21.6261V21.6556V21.685V21.7145V21.7439V21.7733V21.8027V21.8321V21.8614V21.8907V21.92V21.9493V21.9786V22.0078V22.037V22.0662V22.0954V22.1245V22.1536V22.1827V22.2118V22.2409V22.2699V22.2989V22.3279V22.3568V22.3857V22.4146V22.4435V22.4724V22.5012V22.53V22.5587V22.5875V22.6162V22.6449V22.6735V22.7021V22.7307V22.7593V22.7878V22.8163V22.8448V22.8733V22.9017V22.9301V22.9584V22.9867V23.015V23.0433V23.0715V23.0997V23.1278V23.156V23.1841V23.2121V23.2401V23.2681V23.2961V23.324V23.3519V23.3797V23.4075V23.4353V23.463V23.4907V23.5184V23.546V23.5736V23.6011V23.6287V23.6561V23.6836V23.711V23.7383V23.7656V23.7929V23.8201V23.8473V23.8745V23.9016V23.9286V23.9557V23.9827V24.0096V24.0365V24.0633V24.0902V24.1169V24.1437V24.1703V24.197V24.2236V24.2501V24.2766V24.3031V24.3295V24.3558V24.3822V24.4084V24.4346V24.4608V24.4869V24.513V24.5391V24.565V24.591V24.6169V24.6427V24.6685V24.6942V24.7199V24.7455V24.7711V24.7966V24.8221V24.8476V24.8729V24.8983V24.9235V24.9487V24.9739V24.999V25.0241V25.0491V25.074V25.0989V25.1238V25.1486V25.1733V25.198V25.2226V25.2471V25.2716V25.2961V25.3205V25.3448V25.3691V25.3933V25.4174V25.4415V25.4656V25.4896V25.5135V25.5374V25.5612V25.5849V25.6086V25.6322V25.6557V25.6792V25.7027V25.726V25.7494V25.7726V25.7958V25.8189V25.842V25.8649V25.8879V25.9107V25.9335V25.9563V25.9789V26.0015V26.0241V26.0465V26.0689V26.0913V26.1135V26.1357V26.1579V26.1799V26.2019V26.2239V26.2457V26.2675V26.2892V26.3109V26.3325V26.354V26.3754V26.3968V26.4181V26.4393V26.4605V26.4815V26.5026V26.5235V26.5444V26.5651V26.5859V26.6065V26.6271V26.6476V26.668V26.6883V26.7086V26.7288V26.7489V26.769V26.7889V26.8088V26.8286V26.8344C32.2441 26.8406 38.4923 26.8406 41.7884 26.8406Z" fill="#E83E3F" stroke="#E83E3F"/>
<path d="M37.7586 31.168V31.1681L37.7671 31.1679C42.6901 31.0843 46.6167 35.1368 46.4256 40.313L46.4249 40.3319L46.4256 40.3509C46.6298 45.5811 42.7603 49.6607 37.7752 49.4951L37.7669 49.4948H37.7586C32.9969 49.4948 29.1 45.4228 29.1 40.3366V40.3202V40.3038V40.2874V40.2709V40.2543V40.2377V40.2211V40.2044V40.1877V40.171V40.1542V40.1373V40.1204V40.1035V40.0865V40.0695V40.0525V40.0354V40.0182V40.001V39.9838V39.9666V39.9493V39.9319V39.9145V39.8971V39.8797V39.8622V39.8446V39.8271V39.8094V39.7918V39.7741V39.7564V39.7386V39.7208V39.7029V39.685V39.6671V39.6492V39.6312V39.6131V39.5951V39.577V39.5588V39.5407V39.5225V39.5042V39.4859V39.4676V39.4493V39.4309V39.4125V39.394V39.3755V39.357V39.3385V39.3199V39.3012V39.2826V39.2639V39.2452V39.2264V39.2077V39.1888V39.17V39.1511V39.1322V39.1133V39.0943V39.0753V39.0563V39.0372V39.0181V38.999V38.9799V38.9607V38.9415V38.9222V38.903V38.8837V38.8643V38.845V38.8256V38.8062V38.7868V38.7673V38.7478V38.7283V38.7088V38.6892V38.6696V38.65V38.6303V38.6107V38.591V38.5712V38.5515V38.5317V38.5119V38.4921V38.4723V38.4524V38.4325V38.4126V38.3926V38.3727V38.3527V38.3327V38.3126V38.2926V38.2725V38.2524V38.2323V38.2121V38.192V38.1718V38.1516V38.1314V38.1111V38.0909V38.0706V38.0503V38.0299V38.0096V37.9892V37.9688V37.9484V37.928V37.9076V37.8871V37.8666V37.8461V37.8256V37.8051V37.7845V37.764V37.7434V37.7228V37.7022V37.6816V37.6609V37.6403V37.6196V37.5989V37.5782V37.5575V37.5367V37.516V37.4952V37.4744V37.4536V37.4328V37.412V37.3912V37.3703V37.3494V37.3286V37.3077V37.2868V37.2659V37.245V37.224V37.2031V37.1821V37.1611V37.1402V37.1192V37.0982V37.0772V37.0561V37.0351V37.0141V36.993V36.972V36.9509V36.9298V36.9087V36.8876V36.8665V36.8454V36.8243V36.8032V36.7821V36.7609V36.7398V36.7186V36.6975V36.6763V36.6551V36.6339V36.6128V36.5916V36.5704V36.5492V36.528V36.5068V36.4856V36.4643V36.4431V36.4219V36.4007V36.3794V36.3582V36.3369V36.3157V36.2945V36.2732V36.252V36.2307V36.2095V36.1882V36.1669V36.1457V36.1244V36.1032V36.0819V36.0607V36.0394V36.0181V35.9969V35.9756V35.9544V35.9331V35.9118V35.8906V35.8693V35.8481V35.8268V35.8056V35.7843V35.7631V35.7418V35.7206V35.6994V35.6781V35.6569V35.6357V35.6145V35.5933V35.572V35.5508V35.5296V35.5084V35.4872V35.4661V35.4449V35.4237V35.4025V35.3814V35.3602V35.3391V35.3179V35.2968V35.2756V35.2545V35.2334V35.2123V35.1912V35.1701V35.149V35.128V35.1069V35.0858V35.0648V35.0438V35.0227V35.0017V34.9807V34.9597V34.9387V34.9178V34.8968V34.8758V34.8549V34.834V34.813V34.7921V34.7712V34.7504V34.7295V34.7086V34.6878V34.667V34.6461V34.6253V34.6045V34.5838V34.563V34.5423V34.5215V34.5008V34.4801V34.4594V34.4388V34.4181V34.3975V34.3768V34.3562V34.3356V34.3151V34.2945V34.274V34.2534V34.2329V34.2124V34.192V34.1715V34.1511V34.1307V34.1103V34.0899V34.0695V34.0492V34.0289V34.0086V33.9883V33.968V33.9478V33.9276V33.9074V33.8872V33.8671V33.8469V33.8268V33.8067V33.7866V33.7666V33.7466V33.7266V33.7066V33.6866V33.6667V33.6468V33.6269V33.607V33.5872V33.5674V33.5476V33.5278V33.5081V33.4884V33.4687V33.449V33.4294V33.4098V33.3902V33.3706V33.3511V33.3316V33.3121V33.2927V33.2733V33.2539V33.2345V33.2151V33.1958V33.1765V33.1573V33.1381V33.1189V33.0997V33.0806V33.0615V33.0424V33.0233V33.0043V32.9853V32.9664V32.9474V32.9285V32.9097V32.8908V32.872V32.8533V32.8345V32.8158V32.7971V32.7785V32.7599V32.7413V32.7228V32.7043V32.6858V32.6674V32.649V32.6306V32.6122V32.5939V32.5757V32.5574V32.5392V32.5211V32.503V32.4849V32.4668V32.4488V32.4308V32.4129V32.395V32.3771V32.3593V32.3415V32.3237V32.306V32.2883V32.2707V32.2531V32.2355V32.218V32.2005V32.1831V32.1657V32.1483V32.131V32.1137V32.0964V32.0792V32.0621V32.0449V32.0279V32.0108V31.9938V31.9769V31.9599V31.9431V31.9263V31.9095V31.8927V31.876V31.8594V31.8428V31.8262V31.8097V31.7932V31.7767V31.7603V31.744V31.7277V31.7114V31.6952V31.6791V31.6629V31.6469V31.6308V31.6149V31.5989V31.583V31.5672V31.5514V31.5357V31.52V31.5043V31.4887V31.4732V31.4577V31.4422V31.4268V31.4114V31.3961V31.3809V31.3657V31.3505V31.3354V31.3203V31.3053V31.2904V31.2755V31.2606V31.2458V31.231V31.2163V31.2017V31.1871V31.1726V31.1721C31.3272 31.168 35.5216 31.168 37.7586 31.168Z" fill="#E83E3F" stroke="#E83E3F"/>
</svg>
